<svg width="225" height="48" viewBox="0 0 225 48" fill="none" xmlns="http://www.w3.org/2000/svg">
<path d="M59.8516 35.7109C61.2734 36.1641 63 36.3906 65.0312 36.3906C70.5 36.3906 73.2344 33.2734 73.2344 27.0391C73.2344 21.7734 70.7578 19.1406 65.8047 19.1406C63.5547 19.1406 61.5703 19.5625 59.8516 20.4062V35.7109ZM55.5156 6.48438H59.8516V16.5625C61.7109 15.7812 63.7031 15.3906 65.8281 15.3906C73.6094 15.3906 77.5 19.3281 77.5 27.2031C77.5 35.7344 73.4141 40 65.2422 40C61.7109 40 58.4688 39.6641 55.5156 38.9922V6.48438ZM86.5234 27.6016C86.5234 33.5234 88.9844 36.4844 93.9062 36.4844C98.8281 36.4844 101.289 33.5234 101.289 27.6016C101.289 21.8047 98.8281 18.9062 93.9062 18.9062C88.9844 18.9062 86.5234 21.8047 86.5234 27.6016ZM82.1875 27.6953C82.1875 19.4922 86.0938 15.3906 93.9062 15.3906C101.719 15.3906 105.625 19.4922 105.625 27.6953C105.625 35.8828 101.719 39.9766 93.9062 39.9766C86.125 39.9766 82.2188 35.8828 82.1875 27.6953ZM114.648 27.6016C114.648 33.5234 117.109 36.4844 122.031 36.4844C126.953 36.4844 129.414 33.5234 129.414 27.6016C129.414 21.8047 126.953 18.9062 122.031 18.9062C117.109 18.9062 114.648 21.8047 114.648 27.6016ZM110.312 27.6953C110.312 19.4922 114.219 15.3906 122.031 15.3906C129.844 15.3906 133.75 19.4922 133.75 27.6953C133.75 35.8828 129.844 39.9766 122.031 39.9766C114.25 39.9766 110.344 35.8828 110.312 27.6953ZM139.609 40V6.48438H143.945V17.3125C146.336 16.0312 149.094 15.3906 152.219 15.3906C158.344 15.3906 161.406 17.7578 161.406 22.4922C161.406 25.9297 159.062 28.3047 154.375 29.6172L162.25 40H156.766L148.938 29.5703V27.625C154.359 27.1406 157.07 25.4219 157.07 22.4688C157.07 20.0938 155.352 18.9062 151.914 18.9062C149.211 18.9062 146.555 19.6406 143.945 21.1094V40H139.609ZM172.117 15.3906V40H167.781V15.3906H172.117ZM172.117 6.48438V10.5859H167.781V6.48438H172.117ZM189.789 15.3906C196.789 15.3906 200.289 18.8516 200.289 25.7734C200.289 26.7578 200.219 27.8125 200.078 28.9375H182.805C182.805 33.9688 185.742 36.4844 191.617 36.4844C194.414 36.4844 196.898 36.1719 199.07 35.5469V39.0625C196.898 39.6875 194.258 40 191.148 40C182.695 40 178.469 35.8047 178.469 27.4141C178.469 19.3984 182.242 15.3906 189.789 15.3906ZM182.805 25.3281H196.117C196.023 21.0156 193.914 18.8594 189.789 18.8594C185.414 18.8594 183.086 21.0156 182.805 25.3281ZM205.891 38.8281V35.0781C208.781 36.0156 211.703 36.4844 214.656 36.4844C218.578 36.4844 220.539 35.3125 220.539 32.9688C220.539 30.7812 219.172 29.6875 216.438 29.6875H212.922C207.609 29.6875 204.953 27.2656 204.953 22.4219C204.953 17.7344 208.367 15.3906 215.195 15.3906C218.133 15.3906 221.047 15.7812 223.938 16.5625V20.3125C221.047 19.375 218.133 18.9062 215.195 18.9062C211.102 18.9062 209.055 20.0781 209.055 22.4219C209.055 24.6094 210.344 25.7031 212.922 25.7031H216.438C222.062 25.7031 224.875 28.125 224.875 32.9688C224.875 37.6562 221.469 40 214.656 40C211.703 40 208.781 39.6094 205.891 38.8281Z" fill="white"/>
<path d="M12 44H42V40H12.024C11.1 39.976 10 39.61 10 38C10 36.39 11.1 36.024 12.024 36H42V8C42 5.794 40.206 4 38 4H12C9.588 4 6 5.598 6 10V38C6 42.402 9.588 44 12 44ZM10 16V10C10 8.39 11.1 8.024 12 8H38V32H10V16Z" fill="white"/>
<path d="M16 12H34V16H16V12Z" fill="white"/>
</svg>
