<svg width="56" height="56" viewBox="0 0 56 56" fill="none" xmlns="http://www.w3.org/2000/svg">
<path d="M26.3594 8.3125H29.6406C29.9323 8.3125 30.0781 8.45833 30.0781 8.75V47.25C30.0781 47.5417 29.9323 47.6875 29.6406 47.6875H26.3594C26.0677 47.6875 25.9219 47.5417 25.9219 47.25V8.75C25.9219 8.45833 26.0677 8.3125 26.3594 8.3125Z" fill="white"/>
<path d="M9.625 25.9219H46.375C46.6667 25.9219 46.8125 26.0677 46.8125 26.3594V29.6406C46.8125 29.9323 46.6667 30.0781 46.375 30.0781H9.625C9.33333 30.0781 9.1875 29.9323 9.1875 29.6406V26.3594C9.1875 26.0677 9.33333 25.9219 9.625 25.9219Z" fill="white"/>
</svg>
